<?xml version="1.0" encoding="UTF-8" standalone="no"?>
<!-- Created with Inkscape (http://www.inkscape.org/) -->

<svg
   width="210mm"
   height="297mm"
   viewBox="0 0 210 297"
   version="1.1"
   id="svg5"
   xml:space="preserve"
   inkscape:version="1.2.1 (9c6d41e410, 2022-07-14)"
   sodipodi:docname="spinner.svg"
   xmlns:inkscape="http://www.inkscape.org/namespaces/inkscape"
   xmlns:sodipodi="http://sodipodi.sourceforge.net/DTD/sodipodi-0.dtd"
   xmlns="http://www.w3.org/2000/svg"
   xmlns:svg="http://www.w3.org/2000/svg"><sodipodi:namedview
     id="namedview7"
     pagecolor="#ffffff"
     bordercolor="#000000"
     borderopacity="0.25"
     inkscape:showpageshadow="2"
     inkscape:pageopacity="0.0"
     inkscape:pagecheckerboard="0"
     inkscape:deskcolor="#d1d1d1"
     inkscape:document-units="mm"
     showgrid="false"
     inkscape:zoom="0.46057099"
     inkscape:cx="345.22366"
     inkscape:cy="560.17423"
     inkscape:window-width="1366"
     inkscape:window-height="697"
     inkscape:window-x="-8"
     inkscape:window-y="-8"
     inkscape:window-maximized="1"
     inkscape:current-layer="layer1" /><defs
     id="defs2" /><g
     inkscape:label="Camada 1"
     inkscape:groupmode="layer"
     id="layer1"><g
       style="fill:none"
       id="g204"
       transform="matrix(8.8194444,0,0,8.8194444,3.3156031,26.868795)"><path
         opacity="0.2"
         fill-rule="evenodd"
         clip-rule="evenodd"
         d="m 12,19 c 3.866,0 7,-3.134 7,-7 0,-3.86599 -3.134,-7 -7,-7 -3.86599,0 -7,3.13401 -7,7 0,3.866 3.13401,7 7,7 z m 0,3 C 17.5228,22 22,17.5228 22,12 22,6.47715 17.5228,2 12,2 6.47715,2 2,6.47715 2,12 2,17.5228 6.47715,22 12,22 Z"
         fill="#000000"
         id="path192" /><path
         d="M 2,12 C 2,6.47715 6.47715,2 12,2 V 5 C 8.13401,5 5,8.13401 5,12 Z"
         fill="#000000"
         id="path194"
         style="fill:#ffffff" /></g></g></svg>
